<svg xmlns="http://www.w3.org/2000/svg" width="474" height="354" fill="none"><path fill="#E6E6E6" d="M462.974 207.017c49.633 54.889-94.245 133.992-210.503 133.992-116.257 0-196.69-61.291-210.503-133.992C8.476 30.741 327.333-81.3 252.471 73.024c-109.12 224.946 171.416 90.767 210.503 133.993Z"/><path fill="#3F3D56" d="M440.705 220.008C490.338 274.897 346.459 354 230.202 354c-116.258 0-196.69-61.291-210.503-133.992C-13.794 43.731 305.064-68.309 230.202 86.015c-109.12 224.945 171.415 90.766 210.503 133.993Z"/><mask id="a" width="191" height="46" x="-.049" y="71.534" fill="#000" maskUnits="userSpaceOnUse"><path fill="#fff" d="M-.049 71.534h191v46h-191z"/><path d="M94.931 115.036c-52.105-2.292-92.505-13.522-91.974-25.567.318-7.22 15.064-13.027 40.457-15.93a.696.696 0 0 1 .75.88.694.694 0 0 1-.592.498C19.652 77.652 4.62 83.251 4.343 89.531c-.48 10.891 41.032 21.937 90.65 24.12 49.616 2.182 91.939-5.175 92.419-16.067.278-6.305-14.297-13.222-38.036-18.051a.684.684 0 0 1-.442-.297.707.707 0 0 1 .003-.772.709.709 0 0 1 .445-.293.692.692 0 0 1 .271.002c25.197 5.126 39.465 12.223 39.146 19.472-.531 12.045-41.763 19.684-93.868 17.391Z"/></mask><path fill="#47A138" d="M94.931 115.036c-52.105-2.292-92.505-13.522-91.974-25.567.318-7.22 15.064-13.027 40.457-15.93a.696.696 0 0 1 .75.88.694.694 0 0 1-.592.498C19.652 77.652 4.62 83.251 4.343 89.531c-.48 10.891 41.032 21.937 90.65 24.12 49.616 2.182 91.939-5.175 92.419-16.067.278-6.305-14.297-13.222-38.036-18.051a.684.684 0 0 1-.442-.297.707.707 0 0 1 .003-.772.709.709 0 0 1 .445-.293.692.692 0 0 1 .271.002c25.197 5.126 39.465 12.223 39.146 19.472-.531 12.045-41.763 19.684-93.868 17.391Z"/><path fill="#47A138" d="M2.957 89.47.959 89.38l1.998.088Zm40.457-15.93.227 1.986.014-.001-.24-1.986Zm.158 1.377-.214-1.988-.013.001.227 1.987ZM4.343 89.531l-1.998-.089 1.998.089Zm183.069 8.053-1.998-.088 1.998.088Zm-38.036-18.051.399-1.96-.006-.001-.393 1.96Zm.277-1.36-.404 1.96h.005l.399-1.96Zm39.146 19.472-1.998-.088 1.998.088Zm-93.78 15.393c-25.952-1.141-48.92-4.508-65.278-9.055-8.195-2.278-14.62-4.823-18.917-7.464-4.454-2.737-5.95-5.145-5.87-6.962L.96 89.382c-.186 4.206 3.17 7.719 7.77 10.546 4.757 2.923 11.59 5.588 19.94 7.91 16.736 4.652 40.021 8.047 66.174 9.197l.176-3.996ZM4.955 89.558c.047-1.082.634-2.329 2.208-3.714 1.582-1.393 4.014-2.784 7.352-4.098 6.666-2.625 16.505-4.777 29.126-6.22l-.454-3.974c-12.771 1.46-23.003 3.663-30.137 6.472-3.563 1.403-6.465 3-8.53 4.817-2.074 1.825-3.45 4.012-3.561 6.54l3.996.177Zm38.7-14.033c-.171.02-.345.007-.51-.04l1.08-3.85a2.695 2.695 0 0 0-1.051-.081l.48 3.97Zm-.51-.04a1.304 1.304 0 0 1-.456-.231l2.477-3.141a2.694 2.694 0 0 0-.94-.479l-1.081 3.852Zm-.456-.231a1.307 1.307 0 0 1-.332-.39l3.494-1.948a2.693 2.693 0 0 0-.685-.803l-2.477 3.14Zm-.332-.39a1.306 1.306 0 0 1-.157-.488l3.974-.455a2.693 2.693 0 0 0-.323-1.005l-3.494 1.948Zm-.157-.488a1.306 1.306 0 0 1 .043-.51l3.843 1.108c.099-.342.129-.7.088-1.053l-3.974.455Zm.043-.51c.048-.166.128-.32.236-.455l3.122 2.5c.222-.277.387-.596.485-.937l-3.843-1.108Zm.236-.455c.107-.135.24-.246.391-.33l1.922 3.509c.312-.17.587-.401.809-.679l-3.122-2.5Zm.391-.33c.152-.082.317-.134.488-.152l.428 3.977a2.694 2.694 0 0 0 1.006-.316l-1.922-3.508Zm.475-.15c-12.04 1.376-21.956 3.484-28.952 6.09-3.489 1.3-6.36 2.762-8.413 4.397-2.03 1.617-3.529 3.625-3.635 6.024l3.997.177c.032-.74.516-1.787 2.13-3.072 1.59-1.266 4.024-2.551 7.318-3.778 6.57-2.447 16.129-4.507 28.01-5.865l-.455-3.974Zm-41 16.511c-.09 2.048.823 3.897 2.219 5.483 1.39 1.58 3.376 3.044 5.779 4.403 4.813 2.722 11.694 5.244 20.024 7.461 16.693 4.442 39.624 7.764 64.537 8.86l.176-3.996c-24.703-1.087-47.337-4.38-63.684-8.729-8.19-2.18-14.698-4.597-19.084-7.078-2.196-1.242-3.762-2.446-4.744-3.562-.977-1.111-1.256-1.99-1.226-2.666l-3.997-.176Zm92.56 26.207c24.913 1.096 48.047-.2 65.066-3.158 8.493-1.477 15.569-3.385 20.603-5.674 2.513-1.143 4.62-2.426 6.144-3.878 1.529-1.458 2.602-3.22 2.692-5.267l-3.996-.176c-.03.676-.385 1.527-1.456 2.548-1.077 1.026-2.743 2.088-5.04 3.132-4.587 2.086-11.283 3.923-19.632 5.374-16.667 2.897-39.503 4.189-64.206 3.103l-.176 3.996Zm94.505-17.977c.106-2.408-1.218-4.547-3.109-6.34-1.914-1.815-4.661-3.529-8.043-5.134-6.781-3.218-16.535-6.195-28.483-8.625l-.798 3.92c11.791 2.398 21.195 5.295 27.566 8.319 3.194 1.516 5.522 3.015 7.005 4.422 1.505 1.428 1.899 2.518 1.866 3.262l3.996.176Zm-39.641-20.1c.168.033.328.1.471.196l-2.229 3.321c.294.198.625.335.972.405l.786-3.922Zm.471.196c.143.095.265.218.36.362l-3.332 2.213c.196.295.449.549.743.746l2.229-3.321Zm.36.362c.095.143.161.303.194.472l-3.926.766a2.7 2.7 0 0 0 .4.975l3.332-2.213Zm.194.472c.033.17.032.343-.002.512l-3.919-.8a2.688 2.688 0 0 0-.005 1.054l3.926-.766Zm-.002.512a1.306 1.306 0 0 1-.198.47l-3.313-2.24a2.672 2.672 0 0 0-.408.97l3.919.8Zm-.198.47c-.096.143-.22.265-.363.36l-2.201-3.34a2.682 2.682 0 0 0-.749.74l3.313 2.24Zm-.363.36c-.143.094-.304.16-.473.192l-.753-3.929a2.695 2.695 0 0 0-.975.397l2.201 3.34Zm-.473.192a1.302 1.302 0 0 1-.509-.004l.808-3.917a2.693 2.693 0 0 0-1.052-.008l.753 3.929Zm-.504-.003c12.525 2.548 22.198 5.562 28.65 8.77 3.231 1.608 5.546 3.212 7.01 4.744 1.457 1.524 1.934 2.824 1.887 3.91l3.996.176c.112-2.538-1.074-4.844-2.991-6.85-1.908-1.997-4.675-3.846-8.121-5.56-6.902-3.434-16.961-6.532-29.633-9.11l-.798 3.92Zm37.547 17.424c-.08 1.817-1.782 4.084-6.459 6.42-4.513 2.254-11.137 4.224-19.501 5.774-16.695 3.093-39.87 4.429-65.822 3.287l-.176 3.996c26.153 1.151 49.647-.186 66.727-3.35 8.523-1.579 15.564-3.634 20.559-6.128 4.831-2.413 8.482-5.617 8.668-9.823l-3.996-.176Z" mask="url(#a)"/><path fill="#47A138" d="M48.504 116.96a53.435 53.435 0 0 0 18.72 20.274 53.404 53.404 0 0 0 53.264 2.211 53.416 53.416 0 0 0 20.335-18.652c-30.82.416-61.64-.864-92.319-3.833ZM146.59 106.209a53.564 53.564 0 0 0-6.73-47.298 53.351 53.351 0 0 0-18.181-16.438 53.18 53.18 0 0 0-47.62-1.844 53.314 53.314 0 0 0-19.39 14.984 53.488 53.488 0 0 0-10.664 22.094 53.563 53.563 0 0 0 .315 24.542 395.102 395.102 0 0 0 102.27 3.96Z"/><path fill="#fff" d="M108.177 70.497a6.225 6.225 0 1 0 0-12.45 6.225 6.225 0 0 0 0 12.45ZM76.139 94.792c5.702 0 10.325-4.69 10.325-10.477 0-5.786-4.623-10.477-10.325-10.477-5.703 0-10.325 4.69-10.325 10.477 0 5.786 4.622 10.477 10.325 10.477Z"/><path fill="#E6E6E6" d="M74.246 212.905a2.783 2.783 0 1 0 0-5.567 2.783 2.783 0 0 0 0 5.567ZM268.722 321.135a2.783 2.783 0 1 0 .001-5.567 2.783 2.783 0 0 0-.001 5.567ZM96.054 179.873a1.392 1.392 0 1 0 0-2.783 1.392 1.392 0 0 0 0 2.783ZM202.76 263.012a1.392 1.392 0 1 0 0-2.783 1.392 1.392 0 0 0 0 2.783ZM391.536 249.416a1.392 1.392 0 1 0 0-2.785 1.392 1.392 0 0 0 0 2.785ZM346.585 290.849a1.392 1.392 0 1 0 0-2.783 1.392 1.392 0 0 0 0 2.783ZM181.085 197.486a1.392 1.392 0 1 0 .001-2.783 1.392 1.392 0 0 0-.001 2.783ZM192.017 129.462a1.392 1.392 0 1 0 0-2.783 1.392 1.392 0 0 0 0 2.783ZM201.368 34.75a1.392 1.392 0 1 0 0-2.786 1.392 1.392 0 0 0 0 2.785ZM198.699 336.269a1.393 1.393 0 1 0-.002-2.786 1.393 1.393 0 0 0 .002 2.786ZM126.208 294.561a1.392 1.392 0 1 0 0-2.785 1.392 1.392 0 0 0 0 2.785ZM343.8 244.454a1.392 1.392 0 1 0 0-2.783 1.392 1.392 0 0 0 0 2.783Z"/><path fill="#fff" d="M94.056 140.648c3.522 0 6.377-2.788 6.377-6.226s-2.855-6.225-6.377-6.225-6.377 2.787-6.377 6.225c0 3.438 2.855 6.226 6.377 6.226Z"/><path fill="#47A138" d="m404.353 164.189-21.184-17.451a20.558 20.558 0 0 0-9.426-27.953 20.626 20.626 0 0 0-26.66 8.28 20.557 20.557 0 0 0 17.339 30.822 20.556 20.556 0 0 0 13.195-4.41l21.185 17.451a4.367 4.367 0 0 0 6.143-.595 4.364 4.364 0 0 0-.592-6.144Zm-28.121-17.508a14.695 14.695 0 0 1-24.937-3.746 14.698 14.698 0 0 1 15.059-20.227 14.7 14.7 0 0 1 13.164 13.213 14.657 14.657 0 0 1-3.286 10.76Z"/><path fill="#FF5031" d="M424.277 133.069c-6.294 0-11.395-5.101-11.395-11.395 0-6.293 5.101-11.395 11.395-11.395 6.293 0 11.395 5.102 11.395 11.395 0 6.294-5.102 11.395-11.395 11.395Z"/><path fill="#000" d="M417.886 127.383a2.77 2.77 0 0 1-.956-.486 1.456 1.456 0 0 1-.404-.543 1.244 1.244 0 0 1-.09-.633.883.883 0 0 1 .168-.432c.096-.131.226-.242.382-.324.404-.206.938-.198 1.477.009l.062-3.614.438.006-.073 4.247-.333-.181c-.387-.21-.942-.362-1.341-.158a.697.697 0 0 0-.241.211.564.564 0 0 0-.104.277.946.946 0 0 0 .068.472c.064.151.166.29.299.405.475.391 1.177.522 1.979.641l-.077.358a8.47 8.47 0 0 1-1.254-.255ZM413.016 122.149l2.699.409-.075.501-2.7-.409.076-.501ZM426.813 122.149l-2.699.409.076.501 2.699-.409-.076-.501Z"/><path stroke="#000" d="M396.373 147.482a4.416 4.416 0 0 0-.264-.632l-.001-.001a4.372 4.372 0 0 0-6.771-1.242 4.366 4.366 0 0 0-1.184 4.825 4.365 4.365 0 0 0 4.093 2.815 4.371 4.371 0 0 0 2.483-.78l.23-.16.257.113 23.947 10.571a3.211 3.211 0 0 0 3.755-.87l6.067-7.213-5.937-4.668-3.681 3.603-.206.202-.278-.078-22.169-6.159-.257-.072-.084-.254Z"/><path fill="#47A138" d="m419.796 153.847 8.321 6.476a2.083 2.083 0 0 0 2.507.044c.243-.176.446-.403.593-.664l5.172-9.152a5.801 5.801 0 0 0-1.048-8.122 5.796 5.796 0 0 0-8.124 1.026l-7.58 7.234a2.095 2.095 0 0 0-.644 1.616 2.094 2.094 0 0 0 .803 1.542Z"/><path stroke="#000" d="m408.799 228.417 2.582 20.939h4.746l.001-20.939h-7.329Z"/><path fill="#DEE9EA" d="M418.078 247.999h-11.202a7.145 7.145 0 0 0-7.139 7.138v.232l18.34.001.001-7.371Z"/><path stroke="#000" d="m393.952 227.025 2.583 20.939 4.746.001.001-20.94h-7.33Z"/><path fill="#DEE9EA" d="M403.231 246.607h-11.202a7.15 7.15 0 0 0-5.047 2.091 7.134 7.134 0 0 0-2.091 5.047v.232l18.34.001v-7.371Z"/><path fill="#2F2E41" d="M442.14 198.374a18.29 18.29 0 0 1-6.577 8.948 18.295 18.295 0 0 1-10.543 3.491l-.287.004c-2.937.084-6.384-.863-9.766-2.222-6.681-2.686-13.098-6.987-14.8-8.17l2.885 27.739 1.17 11.246a2.104 2.104 0 0 1-.528 1.614 2.097 2.097 0 0 1-1.551.692h-7.205a2.085 2.085 0 0 1-2.023-1.559l-11.895-45.304a8.824 8.824 0 0 1 1.735-7.875 8.833 8.833 0 0 1 7.409-3.181l24.71 1.693-1.726-6.903 22.056-1.466.065.046c.529.385 1.044.789 1.536 1.211a18.714 18.714 0 0 1 3.243 3.554 17.848 17.848 0 0 1 2.092 16.442Z"/><path fill="#2F2E41" d="M442.14 198.374a18.28 18.28 0 0 1-17.12 12.439 91.102 91.102 0 0 1-10.471-6.212l.418 3.994 3.637 34.991a2.086 2.086 0 0 1-.528 1.614 2.097 2.097 0 0 1-1.551.692h-7.205a2.091 2.091 0 0 1-2.022-1.559l-4.246-16.168-7.65-29.136a8.824 8.824 0 0 1 1.735-7.875 8.837 8.837 0 0 1 7.409-3.181l24.71 1.693-1.726-6.903 12.518-.831a17.851 17.851 0 0 1 2.092 16.442Z"/><path fill="#47A138" d="m436.837 179.978.166-.02 3.848-18.922c.033-.164 3.18-16.485-6.466-25.018l-.167-1.168a2.088 2.088 0 0 0-2.685-1.697l-9.087 2.819a2.08 2.08 0 0 0-1.4 2.524l.883 3.36c-1.225 1.438-15.642 18.796-10.62 32.168l2.249 8.793 23.279-2.839Z"/><path fill="#47A138" d="m422.803 159.619 10.458 1.347a2.092 2.092 0 0 0 2.181-1.238c.12-.275.179-.573.173-.872l-.199-10.511a5.795 5.795 0 0 0-9.305-5.293 5.8 5.8 0 0 0-2.201 3.845l-2.85 10.084a2.096 2.096 0 0 0 .268 1.718 2.09 2.09 0 0 0 1.475.92Z"/><path stroke="#000" d="m444.427 125.644 1.568 1.78 2.073-1.143.307-1.75.092-.528.521.129.878.218-6.704-12.165-.001-.002c-3.446-6.131-7.628-7.968-10.9-8.32a12.31 12.31 0 0 0-4.122.264c-.514.121-.923.253-1.202.354-.139.05-.245.093-.314.122l-.078.033-.017.008-.003.001h-.001l-.111.052-.123-.006c-3.99-.189-6.809.654-8.808 1.981-2 1.329-3.222 3.172-3.964 5.062-.743 1.893-.997 3.819-1.063 5.28a18.07 18.07 0 0 0 .016 1.997l13.587.617 1.277-2.325.618-1.125.306 1.247c1.375 5.602.847 10.716-.021 14.423a31.977 31.977 0 0 1-1.367 4.407c-.055.137-.107.267-.158.389l16.997-7.917-.157-2.723-.083-1.447.957 1.087ZM399.596 166.222l.258-.069 22.222-5.965.278-.075.075-.278 1.339-4.974 7.485 1.001-1.558 9.296a3.212 3.212 0 0 1-2.79 2.658l-25.996 3.071-.279.033-.117.255a4.378 4.378 0 0 1-1.741 1.934 4.37 4.37 0 1 1 .072-7.473l.752.586Zm0 0-.201-.176a4.327 4.327 0 0 0-.551-.41l.752.586Z"/><path fill="#fff" d="M165.857 272.397a2.037 2.037 0 0 0-.516-.811 2.017 2.017 0 0 0-.279-.216c-.793-.528-1.977-.647-2.731 0a1.856 1.856 0 0 0-.209.216c-.225.276-.456.547-.692.811-.389.443-.787.871-1.203 1.287-.118.116-.237.234-.358.35l-.21.203c-.267.255-.54.501-.817.744-.146.131-.291.258-.44.383-.222.185-.443.37-.668.549-.021.016-.043.031-.064.049-.006.003-.009.009-.015.012-.003 0-.006 0-.009.006a.057.057 0 0 0-.022.015c-.066.046-.112.076-.145.104.012-.006.024-.016.036-.022l-.167.128a30.231 30.231 0 0 1-5.949 3.413c-.1.04-.203.082-.307.122a26.113 26.113 0 0 1-12.405 1.828 22.707 22.707 0 0 1-1.294-.137 27.43 27.43 0 0 1-1.485-.261 29.771 29.771 0 0 1-5.472-1.652 36 36 0 0 1-6.274-3.681c-.304-.215-.61-.431-.917-.64.349-.857.692-1.713 1.026-2.576.167-.416.328-.832.486-1.251a273.41 273.41 0 0 0 3.526-9.757 276.457 276.457 0 0 0 3.198-9.997c.103-.34.203-.68.3-1.02.526-1.771 1.03-3.545 1.513-5.324.045-.173.094-.343.136-.516.14-.51.277-1.021.41-1.531.304-1.151-.382-2.526-1.591-2.803a2.322 2.322 0 0 0-2.8 1.592c-.131.492-.261.98-.395 1.472a268.414 268.414 0 0 1-2.022 7.11l-.31 1.02a269.118 269.118 0 0 1-6.842 19.754c-.131.343-.264.687-.398 1.027-.088.215-.173.431-.258.644a12.694 12.694 0 0 0-2.675-.644l-.146-.018a8.29 8.29 0 0 0-2.129.018 7.269 7.269 0 0 0-2.978 1.036 7.272 7.272 0 0 0-2.257 2.201c-1.449 2.281-1.431 5.542.601 7.48 2.092 1.995 5.26 1.98 7.722.732a8.61 8.61 0 0 0 3.195-2.995c.303-.455.58-.927.832-1.412.064.043.128.085.192.131.243.17.486.343.725.513a33.933 33.933 0 0 0 4.407 2.706 32.898 32.898 0 0 0 10.513 3.179c.082.009.161.022.243.031.404.051.811.091 1.218.124a31.515 31.515 0 0 0 18.187-4.166 31.859 31.859 0 0 0 2.995-1.968 30.682 30.682 0 0 0 5.472-5.181c.413-.436.65-1.009.668-1.61a2.287 2.287 0 0 0-.152-.801Zm-50.286 7.233c.064-.045.127-.094.188-.142-.018.045-.106.097-.188.142Zm.975-.98c-.07.079-.134.157-.204.236a7.19 7.19 0 0 1-.789.757h-.003v.003a1.19 1.19 0 0 0-.128.066 5.193 5.193 0 0 1-.401.219 5.095 5.095 0 0 1-.823.228 4.988 4.988 0 0 1-.647.006h-.006a4.48 4.48 0 0 1-.44-.122 2.644 2.644 0 0 1-.213-.121c-.027-.024-.051-.049-.066-.064a.62.62 0 0 1-.082-.088l-.001-.001v-.001l-.001-.001h-.002c-.033-.061-.069-.121-.103-.182l-.003-.006a3.495 3.495 0 0 1-.064-.234 4.121 4.121 0 0 1 .003-.416c.041-.194.096-.385.164-.571.062-.132.132-.26.21-.383.006-.012.036-.06.07-.115.003-.003.003-.003.003-.006.045-.052.091-.106.14-.155.082-.091.17-.17.258-.252.171-.112.348-.215.531-.307.29-.103.588-.183.89-.24a7.58 7.58 0 0 1 1.339.013c.422.073.838.175 1.245.306-.247.479-.528.94-.841 1.379l-.036.052Zm-3.377-1a.724.724 0 0 1-.094.119.434.434 0 0 1 .094-.119Z"/><path fill="#fff" d="m156.728 241.382-.082 2.86c-.058 2.117-.117 4.235-.179 6.353-.064 2.384-.131 4.767-.2 7.149-.034 1.23-.068 2.46-.104 3.69l-.279 9.936c-.009.343-.021.683-.03 1.026l-.137 4.929c-.052 1.783-.102 3.565-.152 5.348-.036 1.336-.074 2.673-.112 4.012l-.82 29.089a2.324 2.324 0 0 1-2.278 2.278 2.298 2.298 0 0 1-2.277-2.278c.151-5.454.305-10.908.461-16.362.137-4.932.276-9.864.416-14.795l.137-4.878c.07-2.447.139-4.895.206-7.343.009-.343.022-.683.031-1.026.006-.301.015-.598.024-.899l.401-14.261c.055-1.87.107-3.742.158-5.615l.182-6.401.079-2.812a2.324 2.324 0 0 1 2.278-2.278 2.297 2.297 0 0 1 2.277 2.278ZM281.671 242.014a271.302 271.302 0 0 1-8.552 26.706 216.07 216.07 0 0 1-2.846 7.2l.23-.544a16.56 16.56 0 0 1-1.698 3.223 8.637 8.637 0 0 1-.141.193c.236-.302.28-.361.134-.179-.077.092-.153.183-.233.272a7.187 7.187 0 0 1-.869.822l.285-.221c-.033.078-.265.182-.337.226a5.505 5.505 0 0 1-.731.37l.545-.23a5.803 5.803 0 0 1-1.285.353l.605-.082c-.433.06-.871.065-1.305.014l.605.082a4.266 4.266 0 0 1-1.034-.279l.544.23a3.656 3.656 0 0 1-.509-.272c-.083-.054-.336-.246-.005.007.344.263.044.023-.027-.047-.059-.058-.112-.122-.17-.181-.267-.275.303.473.121.151a5.639 5.639 0 0 1-.267-.497l.23.544a3.558 3.558 0 0 1-.221-.805l.081.606a4.16 4.16 0 0 1-.001-1.034l-.081.605c.056-.383.157-.758.302-1.117l-.23.544c.101-.242.221-.475.358-.698.063-.116.137-.225.221-.326.015.005-.385.46-.173.23.056-.06.108-.123.164-.183.09-.095.186-.182.281-.272.317-.302-.444.293-.078.054a5.82 5.82 0 0 1 .835-.455l-.544.229a6.175 6.175 0 0 1 1.517-.406l-.605.081a7.809 7.809 0 0 1 1.962.023l-.606-.081c.824.125 1.629.351 2.397.674l-.544-.23c1.636.703 3.086 1.746 4.533 2.769a33.971 33.971 0 0 0 4.405 2.705 32.914 32.914 0 0 0 10.514 3.181 31.572 31.572 0 0 0 28.117-11.161c.412-.437.649-1.01.667-1.611a2.32 2.32 0 0 0-.667-1.61c-.836-.767-2.414-.984-3.221 0a28.97 28.97 0 0 1-4.467 4.387c-.12.095-.492.346.079-.06-.13.093-.256.195-.385.29a30.13 30.13 0 0 1-6.175 3.512l.544-.229a29.447 29.447 0 0 1-7.34 2.011l.605-.081a29.672 29.672 0 0 1-7.82-.012l.605.081a30.286 30.286 0 0 1-7.549-2.056l.544.23a35.209 35.209 0 0 1-6.6-3.824 26.426 26.426 0 0 0-3.375-2.124 13.006 13.006 0 0 0-4.385-1.332c-2.866-.338-5.787.779-7.363 3.255-1.45 2.279-1.431 5.54.6 7.478 2.091 1.996 5.259 1.979 7.724.731 2.374-1.203 3.8-3.701 4.803-6.056 2.256-5.301 4.254-10.724 6.116-16.175a271.395 271.395 0 0 0 5.559-18.388c.304-1.151-.383-2.527-1.591-2.802a2.318 2.318 0 0 0-2.802 1.591Z"/><path fill="#fff" d="m304.396 241.381-.819 29.091-.816 28.939-.461 16.363a2.298 2.298 0 0 0 2.277 2.278 2.326 2.326 0 0 0 2.278-2.278l.82-29.09.815-28.939.462-16.364a2.297 2.297 0 0 0-2.278-2.277 2.324 2.324 0 0 0-2.278 2.277ZM222.263 294.184a25.965 25.965 0 0 1-8.112 13.836c-.299.263-.599.517-.91.768-.757.07-1.508.141-2.254.213-.619.058-1.23.119-1.836.177l-.11.012-.076-.673-.308-2.726a15.598 15.598 0 0 1-2.163-6.505 15.664 15.664 0 0 1 .828-6.814c1.068-2.923 3.002-5.506 4.903-8.068 2.626-3.539 5.179-7.037 5.272-11.352a24.936 24.936 0 0 1 3.196 5.473c-.783.374-1.487.9-2.071 1.548-.166.185-.332.443-.219.665.097.189.34.234.55.259l1.522.16c.404.045.809.086 1.213.131a26.5 26.5 0 0 1 .991 5.001 25.495 25.495 0 0 1-.416 7.895Z"/><path fill="#47A138" d="M235.874 283.412c-2.403 1.742-3.808 4.248-4.9 7.009a6.777 6.777 0 0 0-2.92 1.86c-.167.183-.334.439-.22.658.098.187.342.232.554.256l1.532.158c-1.092 3.265-2.094 6.644-4.024 9.402a15.062 15.062 0 0 1-4.9 4.43c-.529.301-1.076.571-1.637.808a453.948 453.948 0 0 0-8.357.719c-.623.057-1.238.118-1.849.175a18.706 18.706 0 0 1 0-.67 25.67 25.67 0 0 1 6.211-16.188c.183-.211.37-.418.562-.625a25.15 25.15 0 0 1 6.846-5.157 25.578 25.578 0 0 1 13.102-2.835Z"/><path fill="#47A138" d="m211.62 306.703-.468 1.386-.236.706c-.622.057-1.236.118-1.846.175l-.11.012-2.018.208a26.84 26.84 0 0 1-.52-.624 25.326 25.326 0 0 1-5.668-18.435 25.307 25.307 0 0 1 8.95-17.079c-.537 2.817.09 5.516 1.119 8.195a6.684 6.684 0 0 0-2.4 1.675c-.167.184-.334.441-.22.661.098.188.342.232.553.257l1.53.159c.406.045.813.085 1.22.13l.573.061c.029.062.053.119.082.18 1.159 2.519 2.407 5.051 3.111 7.677.177.658.315 1.327.415 2.001.313 2.281.11 4.602-.594 6.793a15.334 15.334 0 0 1-3.473 5.862Z"/><path fill="#fff" d="M243.872 263.353c-2.614-5.099-6.665-9.39-11.428-12.543a34.696 34.696 0 0 0-15.962-5.581 30.078 30.078 0 0 0-2.247-.12c-.887-.013-14.233 3.836-18.703 6.98a34.704 34.704 0 0 0-10.73 12.003 31.12 31.12 0 0 0-3.682 15.68 34.478 34.478 0 0 0 4.465 15.632 33.545 33.545 0 0 0 11.067 11.767c4.658 2.972 9.337 10.852 14.836 11.13 5.541.28 11.86-7.153 16.914-9.41a31.714 31.714 0 0 0 12.671-10.327 33.483 33.483 0 0 0 5.952-14.864c.781-5.492.417-11.155-1.458-16.404a34.291 34.291 0 0 0-1.695-3.943c-.54-1.064-2.124-1.456-3.116-.817a2.332 2.332 0 0 0-.817 3.117c.317.625.612 1.26.885 1.906l-.229-.544a30.747 30.747 0 0 1 2.088 7.755l-.082-.605c.377 2.891.37 5.82-.02 8.71l.082-.605a33.313 33.313 0 0 1-2.295 8.404l.23-.544a31.63 31.63 0 0 1-2.026 3.977 30.093 30.093 0 0 1-1.828 2.689c-.26.345.354-.451.086-.112l-.137.172a28.399 28.399 0 0 1-4.354 4.374c-.142.115-.283.235-.432.342.006-.004.48-.364.2-.155-.089.065-.176.132-.265.198-.589.436-1.193.85-1.814 1.242a31.494 31.494 0 0 1-4.481 2.343l.544-.23a33.121 33.121 0 0 1-8.38 2.293l.605-.081c-2.88.389-5.8.394-8.682.015l.606.082a30.316 30.316 0 0 1-7.621-2.061l.544.23a28.487 28.487 0 0 1-5.952-3.413l-.26-.196c-.278-.21.2.155.204.157a5.584 5.584 0 0 1-.466-.372 31.065 31.065 0 0 1-4.777-4.871c-.102-.13-.287-.392.123.16l-.165-.216a32.64 32.64 0 0 1-4.029-7.01l.229.545a32.386 32.386 0 0 1-2.229-8.15l.082.605a29.664 29.664 0 0 1-.015-7.785l-.081.605a28.757 28.757 0 0 1 2.002-7.275l-.229.544a30.676 30.676 0 0 1 2.185-4.208 31.73 31.73 0 0 1 1.652-2.403c.098-.13.369-.454-.093.118l.133-.17a32.535 32.535 0 0 1 5.427-5.414l.17-.133c-.606.482-.168.131-.031.028a31.499 31.499 0 0 1 6.627-3.817l-.544.229c2.357-.989 12.798-3.325 14.697-3.07l-.606-.081a32.208 32.208 0 0 1 8.114 2.242l-.544-.23a33.703 33.703 0 0 1 3.827 1.922 32.815 32.815 0 0 1 3.052 2.025l.225.169c.316.237-.434-.343-.103-.081a33.825 33.825 0 0 1 3.148 2.81 31.885 31.885 0 0 1 2.09 2.354c.111.139.488.639.026.026.113.15.227.299.338.449a29.74 29.74 0 0 1 2.549 4.112c.544 1.062 2.122 1.458 3.116.817a2.332 2.332 0 0 0 .817-3.117ZM114.918 281.555a3.34 3.34 0 1 0 0-6.68 3.34 3.34 0 1 0 0 6.68ZM155.003 317.997a3.341 3.341 0 1 0 0-6.682 3.341 3.341 0 0 0 0 6.682ZM307.148 317.997a3.34 3.34 0 1 0 0-6.68 3.34 3.34 0 0 0 0 6.68ZM315.346 275.482a3.341 3.341 0 1 0 0-6.682 3.341 3.341 0 0 0 0 6.682ZM305.629 244.507a3.34 3.34 0 1 0 0-6.68 3.34 3.34 0 0 0 0 6.68ZM166.24 272.141a3.324 3.324 0 0 1-6.635.314 3.332 3.332 0 0 1 .69-2.37 3.33 3.33 0 0 1 4.535-.669 3.328 3.328 0 0 1 1.41 2.725ZM156.825 241.166a3.327 3.327 0 0 1-3.167 3.314 3.327 3.327 0 0 1-2.777-5.37 3.33 3.33 0 0 1 4.535-.669 3.326 3.326 0 0 1 1.409 2.725ZM267.973 282.77a3.34 3.34 0 1 0 0-6.681 3.341 3.341 0 0 0 0 6.681Z"/></svg>