<svg xmlns="http://www.w3.org/2000/svg" width="146" height="32" fill="none"><path fill="#fff" d="m33.305 26.206 2.728-19.497c1.52-.151 3.638-.227 6.356-.227 2.382 0 4.032.378 4.95 1.131.916.753 1.238 2.112.954 4.068-.205 1.413-.61 2.469-1.208 3.164-.6.698-1.492 1.103-2.673 1.213l-.028.142c2.588.206 3.639 1.96 3.15 5.257-.302 1.96-.939 3.277-1.914 3.955-.975.677-2.588 1.017-4.836 1.017-3.28.004-5.771-.072-7.479-.223Zm3.067-2.2 3.994.027c1.537 0 2.615-.22 3.234-.664.62-.444 1.024-1.314 1.209-2.613.188-1.393.04-2.332-.435-2.813-.48-.482-1.475-.73-2.995-.75H37.33l-.958 6.812Zm1.266-8.99h3.882c1.348 0 2.32-.226 2.912-.677.592-.45.98-1.3 1.167-2.544.168-1.187.018-1.967-.451-2.346-.47-.374-1.434-.564-2.896-.564h-3.768l-.846 6.132ZM60.533 12.417h2.84c-1.012 4.484-2.334 8.28-3.966 11.389-1.462 2.788-2.913 4.766-4.347 5.935-1.434 1.169-3.146 1.922-5.134 2.259l-.507-1.95c1.202-.282 2.249-.705 3.15-1.272.9-.564 1.762-1.424 2.587-2.572h-1.267c-.431 0-.797-.117-1.095-.354-.301-.234-.49-.56-.561-.977L49.59 12.414h2.872l2.081 11.161c.055.32.243.482.561.482h1.38c.075-.13.178-.327.308-.578l.253-.495c1.65-3.446 2.813-6.967 3.488-10.567ZM68.97 14.535 67.87 22.28c-.092.66-.034 1.107.181 1.341.216.237.65.354 1.308.354h2.054l.112 2.118c-.824.245-1.892.368-3.207.368-1.218 0-2.094-.34-2.628-1.018-.534-.677-.719-1.647-.548-2.909l1.126-7.998h-2.502l.253-1.977 2.56-.141.593-4.04h2.673l-.561 4.04h4.22l-.28 2.118H68.97ZM84.807 23.92l.168 1.835c-1.332.527-3.218.791-5.655.791-2.344 0-3.967-.615-4.867-1.85-.9-1.234-1.18-3.15-.845-5.75.356-2.654 1.081-4.47 2.18-5.439 1.095-.97 2.902-1.455 5.415-1.455 2.139 0 3.59.379 4.36 1.132.77.753 1.05 1.864.846 3.335-.226 1.338-.75 2.304-1.575 2.896-.825.594-2.091.956-3.796 1.086l-4.754.423c-.02 1.3.253 2.18.815 2.641.561.46 1.444.691 2.642.691 1.277 0 2.964-.11 5.066-.337Zm-8.355-5.032 4.586-.423c.863-.055 1.493-.24 1.886-.55.394-.31.647-.852.76-1.626.113-.884-.034-1.43-.435-1.64-.403-.207-1.221-.31-2.46-.31-1.424 0-2.434.296-3.023.89-.595.592-1.034 1.813-1.314 3.66ZM92.71 6.427l-.76 5.708c-.168 1.245-.414 2.297-.733 3.164.9-.905 1.89-1.668 2.968-2.29 1.078-.623 2.078-.933 2.995-.933 1.088 0 1.923.203 2.502.61.582.405.992 1.158 1.239 2.258.243 1.1.205 2.614-.113 4.536-.205 1.544-.496 2.802-.873 3.772-.376.97-.862 1.692-1.461 2.163-.6.471-1.209.78-1.828.932-.62.151-1.417.227-2.39.227-2.286 0-4.593-.34-6.92-1.018l2.673-19.13h2.7Zm-1.547 11.02-.928 6.782c1.349.055 2.352.086 3.009.086 1.78 0 2.954-.286 3.515-.864.561-.574.992-1.963 1.294-4.167.263-2.053.29-3.373.085-3.958-.205-.585-.74-.877-1.602-.877-1.331.004-3.121 1-5.373 2.999ZM114.369 26.206h-2.139l.112-2.545c-1.649 1.922-3.617 2.882-5.907 2.882-1.67 0-2.793-.547-3.375-1.64-.582-1.094-.684-3.016-.308-5.763.205-1.527.496-2.776.873-3.745.376-.97.873-1.692 1.492-2.163.62-.471 1.256-.787 1.913-.946.658-.158 1.5-.24 2.533-.24 2.232 0 4.474.244 6.722.736l-1.916 13.424Zm-2.054-4.972.986-6.84c-1.725-.038-2.69-.055-2.896-.055-.975 0-1.715.048-2.221.141a2.465 2.465 0 0 0-1.335.722c-.383.385-.667.88-.845 1.482-.178.602-.353 1.49-.521 2.655-.263 2.053-.294 3.373-.099 3.954.199.585.736.877 1.619.877.863 0 1.705-.24 2.533-.722.818-.474 1.749-1.214 2.779-2.214ZM121.457 12.417l-.14 2.968c2.475-2.222 4.641-3.336 6.496-3.336 1.164 0 2.044.334 2.643 1.004.599.67.804 1.627.619 2.868l-1.461 10.285h-2.701l1.321-9.608c.113-.866.079-1.454-.099-1.767-.178-.31-.568-.468-1.167-.468-.77 0-1.571.238-2.406.705-.835.471-1.927 1.245-3.276 2.318l-1.208 8.817h-2.728l1.941-13.79h2.166v.004ZM143.058 12.417h2.786c-.787 2.469-2.307 4.511-4.556 6.131.281.433.562.98.846 1.64l2.673 6.018h-2.926l-2.643-6.358c-.845.454-1.93.98-3.262 1.582l-.701 4.776h-2.701l2.756-19.78h2.727l-1.239 9.268a16.121 16.121 0 0 1-.9 3.39c1.78-.849 3.324-1.84 4.628-2.98 1.297-1.139 2.136-2.367 2.512-3.687ZM13.631 20.03H.156v6.77H13.63v-6.77Z"/><path fill="#fff" d="M20.323 6.537H6.847v13.538h13.476V6.537ZM6.803 0H.248v6.492h6.555V0ZM26.737 0h-6.462v6.492h6.462V0Z"/></svg>